HIERARCHY
ROOT Hips
{
	OFFSET -0.001795 -0.223333 0.028219
	CHANNELS 6 Xposition Yposition Zposition Zrotation Yrotation Xrotation 
	JOINT LeftUpLeg
	{
		OFFSET 0.069520 -0.091406 -0.006815
		CHANNELS 3 Zrotation Yrotation Xrotation
		JOINT LeftLeg
		{
			OFFSET 0.034277 -0.375199 -0.004496
			CHANNELS 3 Zrotation Yrotation Xrotation
			JOINT LeftFoot
			{
				OFFSET -0.013596 -0.397961 -0.043693
				CHANNELS 3 Zrotation Yrotation Xrotation
				JOINT LeftToe
				{
					OFFSET 0.026358 -0.055791 0.119288
					CHANNELS 3 Zrotation Yrotation Xrotation
					End Site
					{
						OFFSET 0.000000 0.000000 0.000000
					}
				}
			}
		}
	}
	JOINT RightUpLeg
	{
		OFFSET -0.067670 -0.090522 -0.004320
		CHANNELS 3 Zrotation Yrotation Xrotation
		JOINT RightLeg
		{
			OFFSET -0.038290 -0.382569 -0.008850
			CHANNELS 3 Zrotation Yrotation Xrotation
			JOINT RightFoot
			{
				OFFSET 0.015774 -0.398415 -0.042312
				CHANNELS 3 Zrotation Yrotation Xrotation
				JOINT RightToe
				{
					OFFSET -0.025372 -0.048144 0.123348
					CHANNELS 3 Zrotation Yrotation Xrotation
					End Site
					{
						OFFSET 0.000000 0.000000 0.000000
					}
				}
			}
		}
	}
	JOINT Spine
	{
		OFFSET -0.002533 0.108963 -0.026696
		CHANNELS 3 Zrotation Yrotation Xrotation
		JOINT Spine1
		{
			OFFSET 0.005487 0.135180 0.001092
			CHANNELS 3 Zrotation Yrotation Xrotation
			JOINT Spine2
			{
				OFFSET 0.001457 0.052922 0.025425
				CHANNELS 3 Zrotation Yrotation Xrotation
				JOINT Neck
				{
					OFFSET -0.002778 0.213870 -0.042857
					CHANNELS 3 Zrotation Yrotation Xrotation
					JOINT Head
					{
						OFFSET 0.005152 0.064970 0.051349
						CHANNELS 3 Zrotation Yrotation Xrotation
						End Site
						{
							OFFSET 0.000000 0.000000 0.000000
						}
					}
				}
				JOINT LeftShoulder
				{
					OFFSET 0.078845 0.121749 -0.034090
					CHANNELS 3 Zrotation Yrotation Xrotation
					JOINT LeftArm
					{
						OFFSET 0.090977 0.030469 -0.008868
						CHANNELS 3 Zrotation Yrotation Xrotation
						JOINT LeftForeArm
						{
							OFFSET 0.259612 -0.012772 -0.027456
							CHANNELS 3 Zrotation Yrotation Xrotation
							JOINT LeftHand
							{
								OFFSET 0.249234 0.008986 -0.001171
								CHANNELS 3 Zrotation Yrotation Xrotation
								End Site
								{
									OFFSET 0.000000 0.000000 0.000000
								}
							}
						}
					}
				}
				JOINT RightShoulder
				{
					OFFSET -0.081759 0.118833 -0.038615
					CHANNELS 3 Zrotation Yrotation Xrotation
					JOINT RightArm
					{
						OFFSET -0.096012 0.032551 -0.009143
						CHANNELS 3 Zrotation Yrotation Xrotation
						JOINT RightForeArm
						{
							OFFSET -0.253742 -0.013329 -0.021401
							CHANNELS 3 Zrotation Yrotation Xrotation
							JOINT RightHand
							{
								OFFSET -0.255298 0.007772 -0.005559
								CHANNELS 3 Zrotation Yrotation Xrotation
								End Site
								{
									OFFSET 0.000000 0.000000 0.000000
								}
							}
						}
					}
				}
			}
		}
	}
}
MOTION
Frames: 8
Frame Time: 0.050000
0.000000 0.913373 0.000000 -2.303543 -8.749927 3.965502 12.565185 0.753719 -20.017187 -8.072926 1.736242 12.380321 6.846299 14.564735 7.662193 0.000000 0.000000 0.000000 -4.120808 0.261713 -0.845689 3.742898 -0.088357 11.581629 -4.274853 -6.959532 -7.657451 0.000000 0.000000 0.000000 0.242446 -0.526910 17.285574 -6.306887 1.970528 -23.951420 -2.389815 9.157949 27.063113 11.408321 -2.421098 -37.107661 0.000000 0.000000 0.000000 -25.535648 -15.373180 6.637214 -41.007890 -14.361354 -1.873384 -2.081928 -17.868987 0.999581 0.000000 0.000000 0.000000 31.739153 3.189682 1.833523 50.048564 14.772486 -1.741692 5.320184 18.172945 1.582543 0.000000 0.000000 0.000000 
0.010979 0.913674 0.015082 -3.147332 -9.432613 4.562918 12.881424 0.859232 -19.982284 -8.334967 1.900084 13.284004 6.941656 14.701682 8.290785 0.000000 0.000000 0.000000 -4.493789 0.415507 -3.013970 4.468366 -0.080898 15.720185 -3.937709 -6.538426 -6.570220 0.000000 0.000000 0.000000 -0.041389 -0.463280 17.160562 -6.588651 2.062055 -22.187047 -3.379846 8.494231 25.047049 11.772635 -2.516652 -37.863738 0.000000 0.000000 0.000000 -25.366505 -13.337671 5.665848 -39.373213 -14.373070 -1.811193 -4.738090 -18.315959 1.448000 0.000000 0.000000 0.000000 32.196946 3.213164 1.335264 50.407319 13.683820 -1.880048 6.211311 19.283630 1.820408 0.000000 0.000000 0.000000 
0.021047 0.914406 0.028433 -3.604296 -9.213879 4.394412 13.150046 0.868914 -19.511014 -9.255405 2.245095 14.669584 7.432306 15.545726 6.376478 0.000000 0.000000 0.000000 -5.024884 0.650194 -6.764889 6.883609 -0.480277 23.847230 -4.713408 -9.926014 -4.375346 0.000000 0.000000 0.000000 -0.475311 -0.398349 17.373024 -7.044481 2.219558 -21.040774 -2.938528 8.284914 25.148065 12.033516 -2.952500 -36.204671 0.000000 0.000000 0.000000 -23.349986 -14.947098 6.562049 -38.548288 -16.367411 -1.244131 -4.450378 -16.679885 1.252717 0.000000 0.000000 0.000000 32.001605 4.044353 1.933658 50.016518 13.958724 -1.790251 5.329438 19.883399 1.739429 0.000000 0.000000 0.000000 
0.029523 0.917560 0.040437 -4.199673 -9.923654 4.146544 13.584751 0.913363 -17.977119 -9.558127 2.363825 14.601438 6.673190 14.117116 4.732639 0.000000 0.000000 0.000000 -6.797308 0.886793 -11.125953 9.770237 -1.240987 31.114977 -5.590666 -13.475308 -0.891261 0.000000 0.000000 0.000000 -0.297659 -0.421504 18.757438 -7.968189 2.420122 -22.251194 -2.292569 8.223600 25.288688 13.153108 -3.648270 -35.746774 0.000000 0.000000 0.000000 -23.400440 -15.852225 7.266971 -36.524341 -15.675427 -1.485818 -5.024512 -17.929309 1.429087 0.000000 0.000000 0.000000 32.105273 3.924031 1.641111 48.965311 13.304151 -2.021922 6.265745 20.635220 1.955915 0.000000 0.000000 0.000000 
0.035768 0.919197 0.051144 -5.064699 -10.251989 3.504188 13.855871 0.869351 -15.728484 -9.327253 2.241834 13.698036 7.144317 14.988206 4.130107 0.000000 0.000000 0.000000 -8.046554 1.000125 -14.299804 13.426677 -2.607910 35.232327 -6.150959 -15.353080 0.972189 0.000000 0.000000 0.000000 -0.748409 -0.334301 19.934474 -6.820087 2.119780 -21.841057 -2.433064 8.914869 24.543973 14.437703 -4.280155 -35.089196 0.000000 0.000000 0.000000 -22.315712 -15.790682 6.916062 -36.414284 -14.976543 -1.572897 -4.309477 -19.611154 1.437470 0.000000 0.000000 0.000000 32.417419 4.463985 2.254483 47.627650 13.697925 -1.893323 6.599624 21.938522 2.156415 0.000000 0.000000 0.000000 
0.039621 0.920628 0.061192 -5.669771 -10.803841 2.984445 14.441536 0.906443 -13.999031 -10.282872 2.526109 13.634856 7.363230 15.402405 3.591272 0.000000 0.000000 0.000000 -9.225002 1.035532 -16.425306 15.825028 -3.552157 36.886716 -7.410459 -18.143634 0.101609 0.000000 0.000000 0.000000 -0.596251 -0.347808 20.926911 -7.179501 2.168070 -23.400326 -1.904457 8.760867 25.706922 15.057754 -4.598716 -35.641545 0.000000 0.000000 0.000000 -21.307034 -15.528858 6.887378 -35.442991 -14.650333 -1.779278 -4.062343 -21.450349 1.532282 0.000000 0.000000 0.000000 31.479933 4.998719 2.437305 47.179950 14.033805 -1.783445 6.906379 23.744453 2.411131 0.000000 0.000000 0.000000 
0.040845 0.920158 0.071268 -5.927329 -10.571261 2.711290 14.691266 0.900380 -13.403428 -10.415712 2.607421 14.247112 6.994639 14.691287 2.269453 0.000000 0.000000 0.000000 -10.462186 0.979856 -17.816529 15.351088 -3.263207 33.072676 -7.624101 -18.642385 0.016179 0.000000 0.000000 0.000000 -0.043993 -0.473921 21.489238 -5.771006 1.811723 -23.498812 -2.431816 9.259026 25.388173 15.016178 -4.827037 -33.977684 0.000000 0.000000 0.000000 -19.776942 -15.132592 6.355645 -36.246170 -14.616317 -1.744154 -3.742378 -24.100100 1.656371 0.000000 0.000000 0.000000 31.687447 5.394710 3.010486 46.054770 14.785207 -1.591611 5.723095 24.982110 2.329086 0.000000 0.000000 0.000000 
0.039455 0.913795 0.081275 -5.559386 -11.569778 2.433817 15.327899 1.050540 -13.020103 -12.283486 3.455400 16.274529 8.072423 16.826647 0.585637 0.000000 0.000000 0.000000 -10.796605 1.049615 -19.193705 12.094968 -1.890897 29.872706 -6.461251 -15.902063 -0.106024 0.000000 0.000000 0.000000 0.132232 -0.463509 21.777620 -5.584889 1.738127 -24.064161 -1.513498 10.735404 26.253027 14.841383 -4.573624 -34.378359 0.000000 0.000000 0.000000 -20.027085 -15.547308 6.395009 -35.909792 -15.630101 -1.483172 -3.601340 -25.677474 1.718948 0.000000 0.000000 0.000000 30.622681 6.000702 3.778361 46.340644 16.184907 -1.228099 4.510728 24.984499 2.102717 0.000000 0.000000 0.000000 
